<?xml version="1.0" encoding="UTF-8"?>
<svg xmlns="http://www.w3.org/2000/svg" viewBox="-10 10 715 905" width="1610" height="2037">
  <rect x="-10" y="10" width="715" height="905" fill="white"/>

  <defs>
    <!-- 1m grid: 7 SVG units ≈ 1 metre at this scale -->
    <pattern id="grid1m" x="150" y="130" width="7" height="7" patternUnits="userSpaceOnUse">
      <line x1="0" y1="0" x2="7" y2="0" stroke="#ccc" stroke-width="0.4"/>
      <line x1="0" y1="0" x2="0" y2="7" stroke="#ccc" stroke-width="0.4"/>
    </pattern>
  </defs>

  <!-- Road boundary (top) - dashed outer edge + solid inner edge -->
  <line x1="60" y1="80"  x2="520" y2="80"  stroke="#444" stroke-width="1.5" stroke-dasharray="8,5"/>
  <line x1="60" y1="130" x2="520" y2="130" stroke="#222" stroke-width="2"/>

  <!-- Waterway along B and C (width=50 units, parallel + miter at corner) -->
  <!-- Inner edge = plot boundary (B: x=430 y130→540, C: (430,540)→(320,780))  -->
  <!-- Outer edge = offset 50 units perpendicular outward                        -->
  <!-- Miter corner at (480,552) — intersection of outer-B and outer-C lines    -->
  <polygon
    points="430,130 480,130 480,552 366,801 320,780 430,540"
    fill="#b8dff5"
    stroke="none"
    opacity="0.7"
  />
  <polyline
    points="480,130 480,552 366,801"
    fill="none"
    stroke="#444"
    stroke-width="1.5"
    stroke-dasharray="8,5"
  />

  <!-- 1m grid fill inside main plot -->
  <polygon
    points="150,130 430,130 430,540 320,780 150,780"
    fill="url(#grid1m)"
    stroke="none"
  />

  <!-- Main plot polygon -->
  <polygon
    points="
      150,130
      430,130
      430,540
      320,780
      150,780
    "
    fill="none"
    stroke="#222"
    stroke-width="2"
    stroke-linejoin="round"
  />

  <!-- Grid axis ticks every 5m — origin = node 1 (150,130), 5m = 35 SVG units -->

  <!-- Side A: ticks above boundary y=130, labels at y=122 -->
  <g stroke="#999" stroke-width="0.7" fill="#999" font-family="Arial" font-size="6.5" text-anchor="middle">
    <line x1="150" y1="125" x2="150" y2="130"/><text x="150" y="123">0</text>
    <line x1="185" y1="125" x2="185" y2="130"/><text x="185" y="123">5</text>
    <line x1="220" y1="125" x2="220" y2="130"/><text x="220" y="123">10</text>
    <line x1="255" y1="125" x2="255" y2="130"/><text x="255" y="123">15</text>
    <line x1="290" y1="125" x2="290" y2="130"/><text x="290" y="123">20</text>
    <line x1="325" y1="125" x2="325" y2="130"/><text x="325" y="123">25</text>
    <line x1="360" y1="125" x2="360" y2="130"/><text x="360" y="123">30</text>
    <line x1="395" y1="125" x2="395" y2="130"/><text x="395" y="123">35</text>
    <line x1="430" y1="125" x2="430" y2="130"/><text x="430" y="123">40</text>
  </g>

  <!-- Side E: ticks left of boundary x=150, labels at x=142 -->
  <g stroke="#999" stroke-width="0.7" fill="#999" font-family="Arial" font-size="6.5" text-anchor="end">
    <line x1="144" y1="130" x2="150" y2="130"/><text x="142" y="133">0</text>
    <line x1="144" y1="165" x2="150" y2="165"/><text x="142" y="168">5</text>
    <line x1="144" y1="200" x2="150" y2="200"/><text x="142" y="203">10</text>
    <line x1="144" y1="235" x2="150" y2="235"/><text x="142" y="238">15</text>
    <line x1="144" y1="270" x2="150" y2="270"/><text x="142" y="273">20</text>
    <line x1="144" y1="305" x2="150" y2="305"/><text x="142" y="308">25</text>
    <line x1="144" y1="340" x2="150" y2="340"/><text x="142" y="343">30</text>
    <line x1="144" y1="375" x2="150" y2="375"/><text x="142" y="378">35</text>
    <line x1="144" y1="410" x2="150" y2="410"/><text x="142" y="413">40</text>
    <line x1="144" y1="445" x2="150" y2="445"/><text x="142" y="448">45</text>
    <line x1="144" y1="480" x2="150" y2="480"/><text x="142" y="483">50</text>
    <line x1="144" y1="515" x2="150" y2="515"/><text x="142" y="518">55</text>
    <line x1="144" y1="550" x2="150" y2="550"/><text x="142" y="553">60</text>
    <line x1="144" y1="585" x2="150" y2="585"/><text x="142" y="588">65</text>
    <line x1="144" y1="620" x2="150" y2="620"/><text x="142" y="623">70</text>
    <line x1="144" y1="655" x2="150" y2="655"/><text x="142" y="658">75</text>
    <line x1="144" y1="690" x2="150" y2="690"/><text x="142" y="693">80</text>
    <line x1="144" y1="725" x2="150" y2="725"/><text x="142" y="728">85</text>
    <line x1="144" y1="760" x2="150" y2="760"/><text x="142" y="763">90</text>
  </g>

  <!-- Adjacent land (relative's plot) - same weight as main plot, lighter color -->
  <line x1="460" y1="595" x2="635" y2="595" stroke="#888" stroke-width="2"/>
  <line x1="370" y1="845" x2="590" y2="845" stroke="#888" stroke-width="2"/>

  <!-- Corner nodes -->
  <circle cx="150" cy="130" r="7" fill="white" stroke="#222" stroke-width="2"/>
  <circle cx="430" cy="130" r="7" fill="white" stroke="#222" stroke-width="2"/>
  <circle cx="430" cy="540" r="7" fill="white" stroke="#222" stroke-width="2"/>
  <circle cx="320" cy="780" r="7" fill="white" stroke="#222" stroke-width="2"/>
  <circle cx="150" cy="780" r="7" fill="white" stroke="#222" stroke-width="2"/>

  <!-- Node numbers 1–5 -->
  <text x="130" y="118" font-family="Arial" font-size="16" font-weight="bold" fill="#c00" text-anchor="middle">1</text>
  <text x="450" y="118" font-family="Arial" font-size="16" font-weight="bold" fill="#c00" text-anchor="middle">2</text>
  <text x="450" y="538" font-family="Arial" font-size="16" font-weight="bold" fill="#c00" text-anchor="middle">3</text>
  <text x="338" y="800" font-family="Arial" font-size="16" font-weight="bold" fill="#c00" text-anchor="middle">4</text>
  <text x="130" y="800" font-family="Arial" font-size="16" font-weight="bold" fill="#c00" text-anchor="middle">5</text>

  <!-- Side labels A–E (midpoint of each edge, offset outward) -->
  <!-- A: top edge (1→2), above the line -->
  <text x="290" y="104" font-family="Arial" font-size="16" font-weight="bold" fill="#0055cc" text-anchor="middle">A</text>
  <text x="290" y="120" font-family="Arial" font-size="12" fill="#0055cc" text-anchor="middle">~40ม.</text>
  <!-- B: right edge (2→3), to the right -->
  <text x="458" y="332" font-family="Arial" font-size="16" font-weight="bold" fill="#0055cc" text-anchor="start">B</text>
  <text x="458" y="348" font-family="Arial" font-size="12" fill="#0055cc" text-anchor="start">~59ม.</text>
  <!-- C: lower-right diagonal (3→4), to the right -->
  <text x="400" y="657" font-family="Arial" font-size="16" font-weight="bold" fill="#0055cc" text-anchor="start">C</text>
  <text x="400" y="673" font-family="Arial" font-size="12" fill="#0055cc" text-anchor="start">~38ม.</text>
  <!-- D: bottom edge (4→5), below the line -->
  <text x="235" y="808" font-family="Arial" font-size="16" font-weight="bold" fill="#0055cc" text-anchor="middle">D</text>
  <text x="235" y="824" font-family="Arial" font-size="12" fill="#0055cc" text-anchor="middle">~24ม.</text>
  <!-- E: left edge (5→1), to the left -->
  <text x="122" y="452" font-family="Arial" font-size="16" font-weight="bold" fill="#0055cc" text-anchor="end">E</text>
  <text x="122" y="468" font-family="Arial" font-size="12" fill="#0055cc" text-anchor="end">~93ม.</text>
</svg>
